<svg width="135" height="40" viewBox="0 0 135 40" fill="none" xmlns="http://www.w3.org/2000/svg">
<path d="M134.105 35.2758C134.105 37.3886 132.39 39.1099 130.27 39.1099C130.27 39.1099 130.27 39.1099 130.263 39.1099H4.73305C2.61297 39.1099 0.897996 37.3953 0.891244 35.2758V4.72504C0.891244 2.60552 2.61297 0.891008 4.73305 0.891008H130.27C132.39 0.891008 134.105 2.60552 134.105 4.72504V35.2758Z" fill="white"/>
<path d="M130.27 40.0009H4.73305C2.12008 40.0009 0.00675185 37.8881 0 35.2758V4.72504C0.00675185 2.11277 2.12008 0 4.73305 0H130.27C132.883 0 134.997 2.11952 135.003 4.72504V35.2758C135.003 37.8814 132.876 40.0009 130.27 40.0009Z" fill="white"/>
<path d="M134.105 35.2758C134.105 37.3886 132.39 39.1099 130.27 39.1099C130.27 39.1099 130.27 39.1099 130.263 39.1099H4.73305C2.61297 39.1099 0.897996 37.3953 0.891244 35.2758V4.72504C0.891244 2.60552 2.61297 0.891008 4.73305 0.891008H130.27C132.39 0.891008 134.105 2.60552 134.105 4.72504V35.2758Z" fill="#2C5997"/>
<path d="M30.147 19.7912C30.12 16.5647 32.787 14.9986 32.9085 14.9244C31.3961 12.7239 29.0532 12.4201 28.2295 12.3931C26.2647 12.1839 24.3539 13.5676 23.3479 13.5676C22.3284 13.5676 20.7822 12.4134 19.1145 12.4471C16.9742 12.4809 14.9689 13.7161 13.8683 15.6466C11.5997 19.5684 13.2944 25.3397 15.4617 28.5123C16.5488 30.0648 17.8181 31.7995 19.4791 31.7388C21.1063 31.6713 21.714 30.706 23.672 30.706C25.6165 30.706 26.1837 31.7388 27.8784 31.705C29.6204 31.678 30.7209 30.1458 31.7675 28.5798C33.0233 26.7978 33.5297 25.0427 33.5499 24.955C33.5229 24.928 30.1808 23.6522 30.147 19.7912ZM26.9399 10.3073C27.8176 9.21384 28.4118 7.72882 28.2497 6.21681C26.9872 6.27081 25.4005 7.09432 24.489 8.16083C23.6855 9.10584 22.963 10.6448 23.1453 12.1029C24.57 12.2109 26.0284 11.3874 26.9399 10.3073Z" fill="white"/>
<path d="M53.6907 31.516H51.4153L50.173 27.6078H45.8451L44.6567 31.516H42.4421L46.7296 18.2049H49.3763L53.6907 31.516ZM49.8017 25.9607L48.6741 22.4845C48.5526 22.1267 48.3297 21.2964 48.0057 19.9734H47.9651C47.8301 20.5404 47.6208 21.3775 47.3305 22.4845L46.2232 25.9607H49.8017ZM64.6962 26.5952C64.6962 28.2288 64.2506 29.518 63.3661 30.463C62.5694 31.3068 61.5836 31.7253 60.4088 31.7253C59.1395 31.7253 58.2212 31.273 57.6676 30.3618V35.3973H55.534V25.0697C55.534 24.0437 55.507 22.9907 55.4529 21.9175H57.33L57.4515 23.4362H57.492C58.201 22.2887 59.2812 21.715 60.7329 21.715C61.8672 21.715 62.8125 22.1605 63.5687 23.0582C64.3181 23.956 64.6962 25.1372 64.6962 26.5952ZM62.5221 26.6762C62.5221 25.7447 62.3128 24.9685 61.8875 24.3677C61.4283 23.7332 60.8072 23.4227 60.0307 23.4227C59.5041 23.4227 59.0247 23.5982 58.5993 23.9492C58.174 24.3002 57.8904 24.7592 57.7621 25.3195C57.7013 25.5287 57.6676 25.7515 57.6608 25.9675V27.5673C57.6608 28.2625 57.8769 28.8565 58.3022 29.3358C58.7276 29.815 59.288 30.058 59.9699 30.058C60.7734 30.058 61.4013 29.7475 61.847 29.1265C62.2993 28.5055 62.5221 27.6888 62.5221 26.6762ZM75.7423 26.5952C75.7423 28.2288 75.2966 29.518 74.4121 30.463C73.6154 31.3068 72.6297 31.7253 71.4548 31.7253C70.1855 31.7253 69.2672 31.273 68.7136 30.3618V35.3973H66.5732V25.0697C66.5732 24.0437 66.5462 22.9907 66.4922 21.9175H68.3692L68.4908 23.4362H68.5313C69.2402 22.2887 70.3205 21.715 71.7722 21.715C72.9065 21.715 73.8517 22.1605 74.608 23.0582C75.3574 23.956 75.7423 25.1372 75.7423 26.5952ZM73.5682 26.6762C73.5682 25.7447 73.3589 24.9685 72.9335 24.3677C72.4744 23.7332 71.8532 23.4227 71.0767 23.4227C70.5501 23.4227 70.0707 23.5982 69.6453 23.9492C69.22 24.3002 68.9364 24.7592 68.8081 25.3195C68.7406 25.5827 68.7068 25.7987 68.7068 25.9675V27.5673C68.7068 28.2625 68.9229 28.8565 69.3483 29.3358C69.7736 29.815 70.334 30.058 71.016 30.058C71.8194 30.058 72.4474 29.7475 72.893 29.1265C73.3454 28.5055 73.5682 27.6888 73.5682 26.6762ZM88.0847 27.7765C88.0847 28.9105 87.6863 29.8285 86.9031 30.544C86.0388 31.3203 84.8303 31.7118 83.2773 31.7118C81.8459 31.7118 80.6981 31.435 79.8271 30.8815L80.32 29.1063C81.2585 29.6598 82.2848 29.9365 83.3989 29.9365C84.2023 29.9365 84.8303 29.7543 85.2759 29.3965C85.7215 29.032 85.9511 28.5528 85.9511 27.9453C85.9511 27.4053 85.762 26.953 85.3974 26.5817C85.0261 26.2105 84.4184 25.873 83.5609 25.5557C81.2315 24.685 80.0635 23.416 80.0635 21.742C80.0635 20.6484 80.4753 19.7574 81.299 19.0554C82.1228 18.3602 83.2098 18.0092 84.5669 18.0092C85.7755 18.0092 86.7883 18.2184 87.5918 18.6437L87.0584 20.3852C86.3022 19.9802 85.4514 19.7709 84.4994 19.7709C83.75 19.7709 83.1558 19.9532 82.7372 20.3244C82.3793 20.6552 82.2038 21.0534 82.2038 21.5327C82.2038 22.0592 82.4063 22.4912 82.8182 22.8355C83.1693 23.1527 83.8175 23.497 84.756 23.8615C85.9038 24.3205 86.7478 24.8605 87.2812 25.4815C87.8146 26.089 88.0847 26.8585 88.0847 27.7765ZM95.1606 23.5172H92.811V28.1748C92.811 29.3628 93.2228 29.95 94.0533 29.95C94.4314 29.95 94.7487 29.9163 94.9985 29.8488L95.0593 31.4688C94.6407 31.624 94.0871 31.705 93.3984 31.705C92.5544 31.705 91.8994 31.4485 91.4201 30.9355C90.9474 30.4225 90.7111 29.5585 90.7111 28.3503V23.5105H89.3135V21.9107H90.7111V20.1557L92.8042 19.5212V21.9107H95.1538L95.1606 23.5172ZM105.747 26.6357C105.747 28.114 105.322 29.3223 104.485 30.2673C103.6 31.2393 102.432 31.732 100.967 31.732C99.556 31.732 98.4352 31.2663 97.598 30.3348C96.7608 29.3965 96.3422 28.222 96.3422 26.7978C96.3422 25.3127 96.7743 24.091 97.6385 23.146C98.5028 22.201 99.6641 21.7217 101.129 21.7217C102.54 21.7217 103.668 22.1875 104.525 23.1257C105.336 24.0302 105.747 25.198 105.747 26.6357ZM103.533 26.683C103.533 25.8055 103.344 25.0495 102.959 24.4217C102.513 23.659 101.872 23.281 101.041 23.281C100.184 23.281 99.529 23.659 99.0834 24.4217C98.6986 25.0562 98.5095 25.819 98.5095 26.7235C98.5095 27.601 98.6986 28.357 99.0834 28.9915C99.5425 29.7543 100.191 30.1323 101.021 30.1323C101.838 30.1323 102.473 29.7408 102.939 28.9713C103.337 28.3233 103.533 27.5673 103.533 26.683ZM112.682 23.7872C112.459 23.7467 112.236 23.7265 112.006 23.7265C111.257 23.7265 110.676 24.01 110.264 24.577C109.913 25.0765 109.731 25.711 109.731 26.4737V31.5093H107.598V24.9347C107.598 23.929 107.577 22.9165 107.537 21.9107H109.393L109.475 23.7467H109.535C109.758 23.1122 110.116 22.606 110.602 22.228C111.048 21.8972 111.588 21.715 112.141 21.715C112.337 21.715 112.52 21.7285 112.675 21.7555L112.682 23.7872ZM122.222 26.2577C122.229 26.5817 122.202 26.9058 122.141 27.223H115.74C115.767 28.168 116.071 28.897 116.672 29.3965C117.212 29.842 117.908 30.0648 118.765 30.0648C119.71 30.0648 120.575 29.9163 121.358 29.6125L121.689 31.0908C120.777 31.489 119.71 31.6848 118.468 31.6848C116.976 31.6848 115.808 31.246 114.957 30.3753C114.106 29.4978 113.681 28.3233 113.681 26.8517C113.681 25.4072 114.079 24.199 114.869 23.2405C115.7 22.2145 116.821 21.7015 118.225 21.7015C119.609 21.7015 120.656 22.2145 121.365 23.2405C121.938 24.0505 122.222 25.063 122.222 26.2577ZM120.19 25.7042C120.203 25.0697 120.061 24.523 119.778 24.064C119.406 23.47 118.839 23.173 118.076 23.173C117.381 23.173 116.814 23.4632 116.382 24.0437C116.024 24.5027 115.814 25.0562 115.747 25.7042H120.19Z" fill="white"/>
<path d="M45.2374 13.4934C44.6432 13.4934 44.1301 13.4664 43.7047 13.4124V6.97957C44.2989 6.88506 44.9066 6.84456 45.5075 6.84456C47.9516 6.84456 49.0792 8.04607 49.0792 10.0103C49.0792 12.2716 47.7491 13.4934 45.2374 13.4934ZM45.5952 7.66807C45.2644 7.66807 44.9808 7.68832 44.7513 7.73557V12.6294C44.8796 12.6496 45.1226 12.6564 45.4602 12.6564C47.0604 12.6564 47.9787 11.7451 47.9787 10.0373C47.9719 8.51858 47.1482 7.66807 45.5952 7.66807ZM52.5902 13.5406C51.2128 13.5406 50.3148 12.5146 50.3148 11.1106C50.3148 9.65259 51.2263 8.61308 52.6644 8.61308C54.0216 8.61308 54.9398 9.59184 54.9398 11.0296C54.9398 12.5146 54.0013 13.5406 52.5902 13.5406ZM52.6307 9.38934C51.8745 9.38934 51.3883 10.0981 51.3883 11.0904C51.3883 12.0624 51.8812 12.7711 52.6239 12.7711C53.3599 12.7711 53.8595 12.0151 53.8595 11.0701C53.8528 10.1048 53.3666 9.38934 52.6307 9.38934ZM62.8057 8.72108L61.3271 13.4394H60.3683L59.7539 11.3941C59.5986 10.8946 59.4771 10.3816 59.3758 9.86859H59.3555C59.2813 10.3816 59.1327 10.8946 58.9774 11.3941L58.3292 13.4394H57.357L55.9661 8.72108H57.0464L57.5798 10.9621C57.7081 11.4954 57.8093 12.0016 57.8971 12.4741H57.9174C57.9916 12.0759 58.1199 11.5831 58.3022 10.9689L58.9707 8.71433H59.8282L60.4696 10.9149C60.6249 11.4481 60.7532 11.9746 60.8477 12.4674H60.8747C60.9422 11.9814 61.0502 11.4684 61.192 10.9149L61.7659 8.71433L62.8057 8.72108ZM68.2342 13.4394H67.1877V10.7326C67.1877 9.89559 66.8703 9.47709 66.2357 9.47709C65.6145 9.47709 65.1891 10.0103 65.1891 10.6313V13.4394H64.1426V10.0711C64.1426 9.65259 64.1358 9.20709 64.1021 8.72108H65.0271L65.0743 9.45009H65.1013C65.3849 8.94383 65.9588 8.62658 66.6003 8.62658C67.5928 8.62658 68.241 9.38259 68.241 10.6178L68.2342 13.4394ZM71.1308 13.4394H70.0842V6.55431H71.1308V13.4394ZM74.9523 13.5406C73.5749 13.5406 72.6769 12.5146 72.6769 11.1106C72.6769 9.65259 73.5884 8.61308 75.0266 8.61308C76.3837 8.61308 77.3019 9.59184 77.3019 11.0296C77.3019 12.5146 76.3567 13.5406 74.9523 13.5406ZM74.9928 9.38934C74.2366 9.38934 73.7505 10.0981 73.7505 11.0904C73.7505 12.0624 74.2501 12.7711 74.9793 12.7711C75.7153 12.7711 76.2149 12.0151 76.2149 11.0701C76.2149 10.1048 75.7288 9.38934 74.9928 9.38934ZM81.4341 13.4394L81.3598 12.8994H81.3328C81.0155 13.3381 80.5428 13.5474 79.9554 13.5474C79.1114 13.5474 78.5105 12.9534 78.5105 12.1569C78.5105 10.9959 79.5233 10.3883 81.2653 10.3883V10.3006C81.2653 9.67959 80.9344 9.36909 80.2863 9.36909C79.8204 9.36909 79.4153 9.48384 79.0507 9.72009L78.8346 9.03158C79.2735 8.76158 79.8136 8.62658 80.4551 8.62658C81.6907 8.62658 82.3118 9.27459 82.3118 10.5773V12.3121C82.3118 12.7914 82.3321 13.1559 82.3793 13.4394H81.4341ZM81.2923 11.0904C80.131 11.0904 79.5436 11.3739 79.5436 12.0421C79.5436 12.5349 79.8474 12.7779 80.266 12.7779C80.7994 12.7779 81.2923 12.3729 81.2923 11.8194V11.0904ZM87.4027 13.4394L87.3555 12.6834H87.3284C87.0246 13.2571 86.5182 13.5474 85.816 13.5474C84.6817 13.5474 83.8377 12.5484 83.8377 11.1376C83.8377 9.65934 84.7087 8.61983 85.9038 8.61983C86.5385 8.61983 86.9841 8.83583 87.2339 9.26109H87.2542V6.55431H88.3007V12.1636C88.3007 12.6226 88.3142 13.0479 88.3412 13.4326L87.4027 13.4394ZM87.2474 10.6583C87.2474 9.99684 86.8085 9.43659 86.1401 9.43659C85.3636 9.43659 84.8843 10.1251 84.8843 11.0971C84.8843 12.0489 85.3772 12.6969 86.1131 12.6969C86.7748 12.6969 87.2407 12.1231 87.2407 11.4414L87.2474 10.6583ZM94.9513 13.5406C93.5739 13.5406 92.6827 12.5146 92.6827 11.1106C92.6827 9.65259 93.5942 8.61308 95.0323 8.61308C96.3894 8.61308 97.3077 9.59184 97.3077 11.0296C97.3077 12.5146 96.3624 13.5406 94.9513 13.5406ZM94.9918 9.38934C94.2356 9.38934 93.7495 10.0981 93.7495 11.0904C93.7495 12.0624 94.2423 12.7711 94.9783 12.7711C95.7142 12.7711 96.2139 12.0151 96.2139 11.0701C96.2139 10.1048 95.7345 9.38934 94.9918 9.38934ZM102.945 13.4394H101.899V10.7326C101.899 9.89559 101.582 9.47709 100.947 9.47709C100.326 9.47709 99.9004 10.0103 99.9004 10.6313V13.4394H98.8539V10.0711C98.8539 9.65259 98.8471 9.20709 98.8133 8.72108H99.7383L99.7856 9.45009H99.8126C100.096 8.94383 100.67 8.62658 101.305 8.62658C102.297 8.62658 102.945 9.38259 102.945 10.6178V13.4394ZM109.994 9.50409H108.84V11.7924C108.84 12.3729 109.042 12.6699 109.448 12.6699C109.63 12.6699 109.785 12.6496 109.913 12.6226L109.94 13.4191C109.738 13.5001 109.468 13.5339 109.13 13.5339C108.306 13.5339 107.807 13.0749 107.807 11.8801V9.50409H107.118V8.72108H107.807V7.85707L108.833 7.54657V8.72108H109.988L109.994 9.50409ZM115.551 13.4394H114.505V10.7529C114.505 9.90909 114.187 9.48384 113.553 9.48384C113.012 9.48384 112.506 9.85509 112.506 10.5976V13.4394H111.46V6.55431H112.506V9.38934H112.526C112.857 8.87633 113.337 8.61983 113.944 8.61983C114.944 8.61983 115.551 9.39609 115.551 10.6313V13.4394ZM121.236 11.3334H118.09C118.11 12.2244 118.704 12.7306 119.575 12.7306C120.041 12.7306 120.467 12.6496 120.845 12.5079L121.007 13.2369C120.561 13.4326 120.034 13.5271 119.427 13.5271C117.948 13.5271 117.077 12.5956 117.077 11.1511C117.077 9.70659 117.968 8.61983 119.305 8.61983C120.514 8.61983 121.27 9.51084 121.27 10.8609C121.277 11.0161 121.263 11.1714 121.236 11.3334ZM120.271 10.5841C120.271 9.85509 119.906 9.34209 119.231 9.34209C118.63 9.34209 118.151 9.86859 118.083 10.5841H120.271Z" fill="white"/>
</svg>
