<svg width="40" height="32" viewBox="0 0 40 32" fill="none" xmlns="http://www.w3.org/2000/svg">
<path fill-rule="evenodd" clip-rule="evenodd" d="M3.31086 11.9035C-0.263485 9.96305 0.146686 7.80004 3.7373 8.02608L4.54137 9.63617L6.19833 4.13128C6.84939 1.96479 7.93341 0 10.0591 0H31.2513C33.377 0 34.601 1.92654 35.1153 4.1278L36.3589 9.46577L37.075 8.02608C40.7666 7.79657 41.0954 10.0882 37.189 12.0669L37.8238 13.1067C40.3922 15.927 40.1513 20.9137 39.7509 27.8792V30.7098C39.7509 31.4193 39.2073 32 38.5432 32H33.39C32.7259 32 32.1823 31.4193 32.1823 30.7098V29.1311H7.82599V30.7098C7.82599 31.4193 7.28235 32 6.61826 32H1.46509C0.801005 32 0.257366 31.4193 0.257366 30.7098V27.1941C0.257366 27.1245 0.263877 27.0585 0.270388 26.9924C-0.120251 21.6475 -0.6704 14.6577 3.31086 11.9035ZM9.88986 20.413L5.31288 19.7974C4.23211 19.6688 3.94239 20.1556 4.31024 21.1502L4.80505 22.4334C4.96456 22.7638 5.17615 23.0037 5.42356 23.1706C5.71328 23.3619 6.0616 23.4558 6.44898 23.4732L10.5312 23.5079C11.5175 23.5045 11.944 23.0837 11.6347 22.1169C11.3808 21.2093 10.8013 20.639 9.88986 20.413ZM17.7026 18.3577H22.3903C22.667 18.3577 22.8949 18.6012 22.8949 18.8968C22.8949 19.1924 22.667 19.4358 22.3903 19.4358H17.7026C17.4259 19.4358 17.1981 19.1924 17.1981 18.8968C17.1948 18.6012 17.4227 18.3577 17.7026 18.3577ZM29.2851 25.438H33.9727C34.2494 25.438 34.4773 25.6814 34.4773 25.977C34.4773 26.2726 34.2494 26.516 33.9727 26.516H29.2851C29.0084 26.516 28.7805 26.2726 28.7805 25.977C28.7805 25.6814 29.0051 25.438 29.2851 25.438ZM30.1119 20.413L34.6889 19.7974C35.7696 19.6688 36.0594 20.1556 35.6915 21.1502L35.1967 22.4334C35.0372 22.7638 34.8256 23.0037 34.5782 23.1706C34.2885 23.3619 33.9402 23.4558 33.5528 23.4732L29.4706 23.5079C28.4842 23.5045 28.0578 23.0837 28.3671 22.1169C28.621 21.2093 29.2004 20.639 30.1119 20.413ZM5.99324 25.438H10.6809C10.9576 25.438 11.1855 25.6814 11.1855 25.977C11.1855 26.2726 10.9576 26.516 10.6809 26.516H5.99324C5.71654 26.516 5.48867 26.2726 5.48867 25.977C5.48867 25.6814 5.71654 25.438 5.99324 25.438ZM6.26018 10.8498H34.5229L33.2761 5.31363C32.9343 3.62704 31.9512 2.16649 30.33 2.16649H10.7623C9.14439 2.16649 8.31428 3.66529 7.81622 5.31363L6.26018 10.8498Z" fill="#CAA35B"/>
</svg>
