<svg width="24" height="24" viewBox="0 0 24 24" fill="none" xmlns="http://www.w3.org/2000/svg">
<path d="M11.9999 0.00351557C8.6843 0.00351557 5.68452 1.34568 3.51501 3.51518C1.34569 5.68467 0.00351524 8.68443 0.00351524 11.9996C0.00351524 15.3148 1.34569 18.3153 3.5152 20.4848C5.68472 22.6543 8.6845 23.9965 11.9997 23.9965C15.3151 23.9965 18.3153 22.6541 20.485 20.4848C22.6543 18.3151 23.9965 15.3158 23.9965 12.0004C23.9965 8.68501 22.6543 5.68467 20.4848 3.51518C18.3153 1.34568 15.3151 0.00351557 11.9999 0.00351557ZM9.99621 8.29674C9.62356 7.91354 9.63195 7.30047 10.0153 6.92782C10.3985 6.55497 11.0116 6.56356 11.3843 6.94676L15.6497 11.3453L14.9557 12.0203L15.6528 11.3445C16.026 11.7295 16.0165 12.3439 15.6317 12.7174C15.6204 12.7281 15.6092 12.7387 15.5975 12.7486L11.3841 17.0564C11.0114 17.4398 10.3984 17.4482 10.0152 17.0755C9.63176 16.7029 9.62336 16.0898 9.99601 15.7064L13.6042 12.0174L9.99621 8.29674Z" fill="#0B6AF0"/>
</svg>
