<svg width="24" height="24" viewBox="0 0 24 24" fill="none" xmlns="http://www.w3.org/2000/svg">
<path d="M0.00351557 12.0001C0.00351557 15.3157 1.34568 18.3155 3.51518 20.485C5.68467 22.6543 8.68443 23.9965 11.9996 23.9965C15.3148 23.9965 18.3153 22.6543 20.4848 20.4848C22.6543 18.3153 23.9965 15.3155 23.9965 12.0003C23.9965 8.68489 22.6541 5.68472 20.4848 3.51501C18.3151 1.34569 15.3158 0.0035156 12.0004 0.0035156C8.68501 0.0035156 5.68467 1.34569 3.51518 3.51521C1.34568 5.68472 0.00351557 8.68489 0.00351557 12.0001ZM8.29674 14.0038C7.91354 14.3764 7.30047 14.368 6.92782 13.9847C6.55497 13.6015 6.56356 12.9884 6.94676 12.6157L11.3453 8.35032L12.0203 9.04426L11.3445 8.3472C11.7295 7.97396 12.3439 7.98353 12.7174 8.36829C12.7281 8.37962 12.7387 8.39075 12.7486 8.40247L17.0564 12.6159C17.4398 12.9886 17.4482 13.6016 17.0755 13.9848C16.7029 14.3682 16.0898 14.3766 15.7064 14.004L12.0174 10.3958L8.29674 14.0038Z" fill="#0B6AF0"/>
</svg>
