<svg width="24" height="24" viewBox="0 0 24 24" fill="none" xmlns="http://www.w3.org/2000/svg">
<path d="M23.9965 11.9999C23.9965 8.6843 22.6543 5.68452 20.4848 3.51501C18.3153 1.34569 15.3156 0.00351448 12.0004 0.00351419C8.68521 0.0035139 5.68468 1.34569 3.51518 3.5152C1.34568 5.68472 0.00351849 8.6845 0.0035182 11.9997C0.00351791 15.3151 1.34588 18.3153 3.51518 20.485C5.68487 22.6543 8.68423 23.9965 11.9996 23.9965C15.315 23.9965 18.3153 22.6543 20.4848 20.4848C22.6543 18.3153 23.9965 15.3151 23.9965 11.9999ZM15.7033 9.99621C16.0865 9.62355 16.6995 9.63195 17.0722 10.0153C17.445 10.3985 17.4364 11.0116 17.0532 11.3843L12.6547 15.6497L11.9797 14.9557L12.6555 15.6528C12.2705 16.026 11.6561 16.0165 11.2826 15.6317C11.2719 15.6204 11.2613 15.6092 11.2514 15.5975L6.94364 11.3841C6.56025 11.0114 6.55185 10.3984 6.9245 10.0152C7.29715 9.63176 7.91022 9.62336 8.29362 9.99601L11.9826 13.6042L15.7033 9.99621Z" fill="#0B6AF0"/>
</svg>
