<svg width="32" height="32" viewBox="0 0 32 32" fill="none" xmlns="http://www.w3.org/2000/svg">
<g filter="url(#filter0_i_1_15)">
<rect x="0.5" y="0.5" width="31" height="31" rx="7.5" stroke="white"/>
<path d="M10 16.0058C10 12.6889 12.6863 10 16 10C19.3137 10 22 12.6889 22 16.0058C22 19.1966 19.514 21.8062 16.375 22V17.6949H17.6875C17.9982 17.6949 18.25 17.4428 18.25 17.1319C18.25 16.8209 17.9982 16.5688 17.6875 16.5688H16.375V15.0674C16.375 14.9688 16.3944 14.8712 16.4321 14.7801C16.4698 14.689 16.525 14.6062 16.5947 14.5365C16.6643 14.4668 16.747 14.4115 16.838 14.3738C16.929 14.3361 17.0265 14.3166 17.125 14.3166H17.6875C17.9982 14.3166 18.25 14.0646 18.25 13.7536C18.25 13.4426 17.9982 13.1906 17.6875 13.1906H17.125C16.8788 13.1906 16.635 13.2391 16.4075 13.3334C16.18 13.4277 15.9733 13.566 15.7992 13.7403C15.6251 13.9145 15.487 14.1214 15.3927 14.3491C15.2985 14.5769 15.25 14.8209 15.25 15.0674V16.5688H14.3125C14.0018 16.5688 13.75 16.8209 13.75 17.1319C13.75 17.4428 14.0018 17.6949 14.3125 17.6949H15.25V21.9651C12.2903 21.5956 10 19.0684 10 16.0058Z" fill="white"/>
</g>
<defs>
<filter id="filter0_i_1_15" x="0" y="0" width="32" height="36" filterUnits="userSpaceOnUse" color-interpolation-filters="sRGB">
<feFlood flood-opacity="0" result="BackgroundImageFix"/>
<feBlend mode="normal" in="SourceGraphic" in2="BackgroundImageFix" result="shape"/>
<feColorMatrix in="SourceAlpha" type="matrix" values="0 0 0 0 0 0 0 0 0 0 0 0 0 0 0 0 0 0 127 0" result="hardAlpha"/>
<feOffset dy="4"/>
<feGaussianBlur stdDeviation="2"/>
<feComposite in2="hardAlpha" operator="arithmetic" k2="-1" k3="1"/>
<feColorMatrix type="matrix" values="0 0 0 0 0 0 0 0 0 0 0 0 0 0 0 0 0 0 0.25 0"/>
<feBlend mode="normal" in2="shape" result="effect1_innerShadow_1_15"/>
</filter>
</defs>
</svg>
