<svg width="40" height="32" viewBox="0 0 40 32" fill="none" xmlns="http://www.w3.org/2000/svg">
<path fill-rule="evenodd" clip-rule="evenodd" d="M0 14.2758H8.0835V28.9706H0V14.2758ZM27.7893 6.81524C30.7225 6.81524 33.1023 9.24332 33.1023 12.2435C33.1023 15.2403 30.7258 17.6717 27.7893 17.6717C24.856 17.6717 22.4762 15.2437 22.4762 12.2435C22.4762 9.24665 24.8528 6.81524 27.7893 6.81524ZM18.4654 0C20.995 0 23.0492 2.09546 23.0492 4.68319C23.0492 7.2676 20.9982 9.36639 18.4654 9.36639C15.9359 9.36639 13.8816 7.27092 13.8816 4.68319C13.8816 2.09879 15.9326 0 18.4654 0ZM18.9309 5.67771C18.9309 5.5247 18.8951 5.40829 18.8203 5.32181C18.7454 5.23533 18.6184 5.1555 18.4361 5.079C18.2538 5.0025 18.0845 4.926 17.9315 4.8495C17.7785 4.76967 17.6418 4.67987 17.5311 4.57676C17.4171 4.47365 17.3325 4.35391 17.2739 4.22086C17.212 4.08449 17.186 3.92151 17.186 3.72859C17.186 3.40596 17.2934 3.13987 17.505 2.93365C17.7166 2.72743 17.9999 2.60103 18.3547 2.56777V2.13538H18.8007V2.57775C19.1426 2.62764 19.4128 2.77067 19.6081 3.00682C19.8034 3.24298 19.9011 3.54233 19.9011 3.90155H18.9472C18.9472 3.70198 18.9082 3.54898 18.8333 3.44255C18.7584 3.33611 18.651 3.28289 18.5142 3.28289C18.3905 3.28289 18.2929 3.32281 18.2278 3.39931C18.1594 3.47913 18.1268 3.5889 18.1268 3.72527C18.1268 3.86496 18.1659 3.97805 18.244 4.06121C18.3254 4.14436 18.4491 4.22419 18.6217 4.30069C18.7942 4.37719 18.9602 4.45369 19.1133 4.53352C19.2663 4.61667 19.3997 4.70648 19.5104 4.80959C19.6244 4.9127 19.7123 5.03576 19.7741 5.17213C19.836 5.30851 19.8718 5.47149 19.8718 5.66773C19.8718 5.99369 19.7709 6.25978 19.5658 6.466C19.3607 6.67222 19.0872 6.79196 18.7389 6.82522V7.23101H18.2961V6.82522C17.8892 6.77866 17.5766 6.63896 17.3585 6.39948C17.1404 6.15667 17.0297 5.84069 17.0297 5.44488H17.9771C17.9771 5.6644 18.0227 5.82738 18.1171 5.9438C18.2115 6.05689 18.3449 6.11676 18.5175 6.11676C18.6445 6.11676 18.7421 6.07684 18.817 6.00034C18.8886 5.92051 18.9277 5.81408 18.9309 5.67771ZM28.3264 13.3943C28.3264 13.218 28.2841 13.0817 28.1995 12.9819C28.1148 12.8821 27.9683 12.789 27.7535 12.6992C27.5418 12.6127 27.3465 12.5196 27.1675 12.4331C26.9884 12.3433 26.8321 12.2368 26.7019 12.1171C26.5717 11.9974 26.474 11.861 26.4024 11.7047C26.3308 11.5483 26.3015 11.3587 26.3015 11.1359C26.3015 10.76 26.4252 10.454 26.6726 10.2146C26.9168 9.97507 27.2456 9.83205 27.6558 9.79213V9.28989H28.1734V9.80544C28.5673 9.86531 28.8799 10.0316 29.1078 10.3044C29.3356 10.5771 29.4496 10.923 29.4496 11.3421H28.3492C28.3492 11.1093 28.3036 10.9363 28.219 10.8099C28.1343 10.6869 28.0074 10.6237 27.8479 10.6237C27.7046 10.6237 27.5939 10.6702 27.5158 10.76C27.4377 10.8498 27.3986 10.9796 27.3986 11.1392C27.3986 11.3022 27.4442 11.4319 27.5353 11.5284C27.6265 11.6248 27.7697 11.718 27.9716 11.8044C28.1734 11.8909 28.3622 11.9841 28.5413 12.0739C28.7203 12.167 28.8734 12.2768 29.0036 12.3932C29.1338 12.5129 29.2347 12.6526 29.3096 12.8123C29.3845 12.9719 29.4203 13.1615 29.4203 13.3844C29.4203 13.7635 29.3031 14.0729 29.0654 14.309C28.831 14.5452 28.512 14.6882 28.1051 14.7248V15.1938H27.5874V14.7215C27.1154 14.6682 26.754 14.5053 26.5001 14.2259C26.2494 13.9465 26.1224 13.5773 26.1224 13.1183H27.2195C27.2195 13.371 27.2749 13.5606 27.3823 13.6937C27.4898 13.8234 27.646 13.8933 27.8479 13.8933C27.9944 13.8933 28.1083 13.8467 28.1962 13.7602C28.2808 13.6737 28.3232 13.5507 28.3264 13.3943ZM27.7893 7.88293C30.143 7.88293 32.054 9.83205 32.054 12.2402C32.054 14.645 30.1463 16.5974 27.7893 16.5974C25.4355 16.5974 23.5245 14.6483 23.5245 12.2402C23.5245 9.83205 25.4355 7.88293 27.7893 7.88293ZM9.71127 27.7366V15.4565H15.1187C17.4106 15.8756 19.7025 17.1462 21.9944 18.6197H26.194C28.0953 18.7361 29.0915 20.7052 27.2423 21.999C25.7708 23.1033 23.8273 23.0401 21.8349 22.8572C20.4611 22.7873 20.4024 24.6732 21.8349 24.6799C22.333 24.7198 22.8734 24.6001 23.3455 24.6001C25.8327 24.5967 27.8772 24.1111 29.1305 22.1055L29.7589 20.6054L36.0062 17.4422C39.1316 16.3912 41.3518 19.7306 39.0502 22.0556C34.525 25.4183 29.8858 28.1856 25.1393 30.4208C21.6916 32.5628 18.244 32.4897 14.7997 30.4208L9.71127 27.7366Z" fill="#F9B424"/>
</svg>
