<svg width="32" height="32" viewBox="0 0 32 32" fill="none" xmlns="http://www.w3.org/2000/svg">
<rect width="32" height="32" rx="6" fill="url(#paint0_linear_246_1154)"/>
<path d="M13.1887 16.0971C13.1887 14.4887 14.493 13.1845 16.1024 13.1845C17.7118 13.1845 19.0168 14.4887 19.0168 16.0971C19.0168 17.7056 17.7118 19.0098 16.1024 19.0098C14.493 19.0098 13.1887 17.7056 13.1887 16.0971ZM11.6132 16.0971C11.6132 18.575 13.623 20.5836 16.1024 20.5836C18.5817 20.5836 20.5915 18.575 20.5915 16.0971C20.5915 13.6192 18.5817 11.6106 16.1024 11.6106C13.623 11.6106 11.6132 13.6192 11.6132 16.0971ZM19.7202 11.4328C19.7201 11.6401 19.7815 11.8429 19.8967 12.0153C20.0119 12.1878 20.1757 12.3222 20.3674 12.4017C20.5591 12.4811 20.77 12.502 20.9735 12.4616C21.177 12.4212 21.364 12.3214 21.5108 12.1749C21.6576 12.0283 21.7576 11.8415 21.7981 11.6381C21.8387 11.4348 21.818 11.2239 21.7387 11.0323C21.6593 10.8407 21.5249 10.6769 21.3525 10.5616C21.18 10.4464 20.9772 10.3848 20.7697 10.3847H20.7693C20.4911 10.3848 20.2244 10.4953 20.0277 10.6918C19.831 10.8883 19.7204 11.1548 19.7202 11.4328ZM12.5704 23.2091C11.718 23.1703 11.2548 23.0284 10.9469 22.9085C10.5387 22.7497 10.2475 22.5605 9.94128 22.2549C9.63508 21.9494 9.44555 21.6586 9.28734 21.2507C9.16732 20.9431 9.02535 20.48 8.9866 19.6281C8.94422 18.7071 8.93575 18.4305 8.93575 16.0972C8.93575 13.7639 8.94492 13.488 8.9866 12.5663C9.02542 11.7144 9.16844 11.2522 9.28734 10.9438C9.44625 10.5358 9.6355 10.2448 9.94128 9.93876C10.2471 9.63274 10.538 9.44332 10.9469 9.28521C11.2546 9.16526 11.718 9.02337 12.5704 8.98465C13.4919 8.94229 13.7688 8.93383 16.1024 8.93383C18.436 8.93383 18.7131 8.94299 19.6354 8.98465C20.4878 9.02344 20.9503 9.16638 21.2589 9.28521C21.6671 9.44332 21.9583 9.63316 22.2645 9.93876C22.5707 10.2443 22.7596 10.5358 22.9185 10.9438C23.0385 11.2513 23.1804 11.7144 23.2192 12.5663C23.2616 13.488 23.27 13.7639 23.27 16.0972C23.27 18.4305 23.2616 18.7064 23.2192 19.6281C23.1804 20.48 23.0377 20.943 22.9185 21.2507C22.7596 21.6586 22.5703 21.9496 22.2645 22.2549C21.9587 22.5603 21.6671 22.7497 21.2589 22.9085C20.9512 23.0284 20.4878 23.1703 19.6354 23.2091C18.7139 23.2514 18.437 23.2599 16.1024 23.2599C13.7677 23.2599 13.4916 23.2514 12.5704 23.2091ZM12.498 7.41278C11.5673 7.45513 10.9314 7.60262 10.376 7.8186C9.80077 8.04165 9.31385 8.34088 8.82728 8.8264C8.3407 9.31191 8.04206 9.79931 7.81888 10.3742C7.60277 10.9296 7.45519 11.5648 7.41281 12.4949C7.36972 13.4265 7.35986 13.7244 7.35986 16.0971C7.35986 18.4699 7.36972 18.7677 7.41281 19.6993C7.45519 20.6295 7.60277 21.2647 7.81888 21.8201C8.04206 22.3946 8.34077 22.8826 8.82728 23.3679C9.31378 23.8532 9.80077 24.152 10.376 24.3757C10.9324 24.5916 11.5673 24.7391 12.498 24.7815C13.4307 24.8238 13.7282 24.8344 16.1024 24.8344C18.4766 24.8344 18.7746 24.8245 19.7067 24.7815C20.6375 24.7391 21.273 24.5916 21.8288 24.3757C22.4036 24.152 22.8909 23.8534 23.3775 23.3679C23.864 22.8824 24.1621 22.3946 24.3859 21.8201C24.602 21.2647 24.7503 20.6295 24.7919 19.6993C24.8343 18.767 24.8442 18.4699 24.8442 16.0971C24.8442 13.7244 24.8343 13.4265 24.7919 12.4949C24.7496 11.5647 24.602 10.9292 24.3859 10.3742C24.1621 9.79966 23.8633 9.31268 23.3775 8.8264C22.8917 8.34011 22.4036 8.04165 21.8295 7.8186C21.273 7.60262 20.6374 7.45444 19.7074 7.41278C18.7753 7.37042 18.4773 7.35986 16.1031 7.35986C13.7289 7.35986 13.4307 7.36972 12.498 7.41278Z" fill="white"/>
<path d="M13.1887 16.0971C13.1887 14.4887 14.493 13.1845 16.1024 13.1845C17.7118 13.1845 19.0168 14.4887 19.0168 16.0971C19.0168 17.7056 17.7118 19.0098 16.1024 19.0098C14.493 19.0098 13.1887 17.7056 13.1887 16.0971ZM11.6132 16.0971C11.6132 18.575 13.623 20.5836 16.1024 20.5836C18.5817 20.5836 20.5915 18.575 20.5915 16.0971C20.5915 13.6192 18.5817 11.6106 16.1024 11.6106C13.623 11.6106 11.6132 13.6192 11.6132 16.0971ZM19.7202 11.4328C19.7201 11.6401 19.7815 11.8429 19.8967 12.0153C20.0119 12.1878 20.1757 12.3222 20.3674 12.4017C20.5591 12.4811 20.77 12.502 20.9735 12.4616C21.177 12.4212 21.364 12.3214 21.5108 12.1749C21.6576 12.0283 21.7576 11.8415 21.7981 11.6381C21.8387 11.4348 21.818 11.2239 21.7387 11.0323C21.6593 10.8407 21.5249 10.6769 21.3525 10.5616C21.18 10.4464 20.9772 10.3848 20.7697 10.3847H20.7693C20.4911 10.3848 20.2244 10.4953 20.0277 10.6918C19.831 10.8883 19.7204 11.1548 19.7202 11.4328ZM12.5704 23.2091C11.718 23.1703 11.2548 23.0284 10.9469 22.9085C10.5387 22.7497 10.2475 22.5605 9.94128 22.2549C9.63508 21.9494 9.44555 21.6586 9.28734 21.2507C9.16732 20.9431 9.02535 20.48 8.9866 19.6281C8.94422 18.7071 8.93575 18.4305 8.93575 16.0972C8.93575 13.7639 8.94492 13.488 8.9866 12.5663C9.02542 11.7144 9.16844 11.2522 9.28734 10.9438C9.44625 10.5358 9.6355 10.2448 9.94128 9.93876C10.2471 9.63274 10.538 9.44332 10.9469 9.28521C11.2546 9.16526 11.718 9.02337 12.5704 8.98465C13.4919 8.94229 13.7688 8.93383 16.1024 8.93383C18.436 8.93383 18.7131 8.94299 19.6354 8.98465C20.4878 9.02344 20.9503 9.16638 21.2589 9.28521C21.6671 9.44332 21.9583 9.63316 22.2645 9.93876C22.5707 10.2443 22.7596 10.5358 22.9185 10.9438C23.0385 11.2513 23.1804 11.7144 23.2192 12.5663C23.2616 13.488 23.27 13.7639 23.27 16.0972C23.27 18.4305 23.2616 18.7064 23.2192 19.6281C23.1804 20.48 23.0377 20.943 22.9185 21.2507C22.7596 21.6586 22.5703 21.9496 22.2645 22.2549C21.9587 22.5603 21.6671 22.7497 21.2589 22.9085C20.9512 23.0284 20.4878 23.1703 19.6354 23.2091C18.7139 23.2514 18.437 23.2599 16.1024 23.2599C13.7677 23.2599 13.4916 23.2514 12.5704 23.2091ZM12.498 7.41278C11.5673 7.45513 10.9314 7.60262 10.376 7.8186C9.80077 8.04165 9.31385 8.34088 8.82728 8.8264C8.3407 9.31191 8.04206 9.79931 7.81888 10.3742C7.60277 10.9296 7.45519 11.5648 7.41281 12.4949C7.36972 13.4265 7.35986 13.7244 7.35986 16.0971C7.35986 18.4699 7.36972 18.7677 7.41281 19.6993C7.45519 20.6295 7.60277 21.2647 7.81888 21.8201C8.04206 22.3946 8.34077 22.8826 8.82728 23.3679C9.31378 23.8532 9.80077 24.152 10.376 24.3757C10.9324 24.5916 11.5673 24.7391 12.498 24.7815C13.4307 24.8238 13.7282 24.8344 16.1024 24.8344C18.4766 24.8344 18.7746 24.8245 19.7067 24.7815C20.6375 24.7391 21.273 24.5916 21.8288 24.3757C22.4036 24.152 22.8909 23.8534 23.3775 23.3679C23.864 22.8824 24.1621 22.3946 24.3859 21.8201C24.602 21.2647 24.7503 20.6295 24.7919 19.6993C24.8343 18.767 24.8442 18.4699 24.8442 16.0971C24.8442 13.7244 24.8343 13.4265 24.7919 12.4949C24.7496 11.5647 24.602 10.9292 24.3859 10.3742C24.1621 9.79966 23.8633 9.31268 23.3775 8.8264C22.8917 8.34011 22.4036 8.04165 21.8295 7.8186C21.273 7.60262 20.6374 7.45444 19.7074 7.41278C18.7753 7.37042 18.4773 7.35986 16.1031 7.35986C13.7289 7.35986 13.4307 7.36972 12.498 7.41278Z" fill="white"/>
<defs>
<linearGradient id="paint0_linear_246_1154" x1="31.385" y1="32" x2="-0.615039" y2="-8.6135e-07" gradientUnits="userSpaceOnUse">
<stop stop-color="#FBE18A"/>
<stop offset="0.21" stop-color="#FCBB45"/>
<stop offset="0.38" stop-color="#F75274"/>
<stop offset="0.52" stop-color="#D53692"/>
<stop offset="0.74" stop-color="#8F39CE"/>
<stop offset="1" stop-color="#5B4FE9"/>
</linearGradient>
</defs>
</svg>
