<svg width="32" height="32" viewBox="0 0 32 32" fill="none" xmlns="http://www.w3.org/2000/svg">
<g filter="url(#filter0_i_1_13)">
<rect x="0.5" y="0.5" width="31" height="31" rx="7.5" stroke="white"/>
<path d="M15.9405 14.201C16.1767 14.1932 16.4122 14.232 16.6335 14.3152C16.8547 14.3983 17.0574 14.5243 17.23 14.6858C17.4026 14.8473 17.5417 15.0413 17.6393 15.2566C17.7369 15.4718 17.7912 15.7042 17.799 15.9405C17.8068 16.1767 17.768 16.4122 17.6848 16.6335C17.6017 16.8547 17.4757 17.0574 17.3142 17.23C17.1527 17.4026 16.9587 17.5417 16.7434 17.6393C16.5282 17.7369 16.2958 17.7912 16.0595 17.799C15.8233 17.8068 15.5878 17.768 15.3665 17.6848C15.1453 17.6017 14.9426 17.4757 14.77 17.3142C14.5974 17.1527 14.4583 16.9587 14.3607 16.7434C14.2631 16.5282 14.2088 16.2958 14.201 16.0595C14.1932 15.8233 14.232 15.5878 14.3152 15.3665C14.3983 15.1453 14.5243 14.9426 14.6858 14.77C14.8473 14.5974 15.0413 14.4583 15.2566 14.3607C15.4718 14.2631 15.7042 14.2088 15.9405 14.201Z" fill="white"/>
<path fill-rule="evenodd" clip-rule="evenodd" d="M16.9185 10H15.0815C14.3067 10 13.688 9.99999 13.1886 10.0415C12.6763 10.084 12.236 10.1733 11.8327 10.3828C11.2117 10.7054 10.7054 11.2117 10.3828 11.8327C10.1733 12.236 10.084 12.6763 10.0415 13.1886C9.99999 13.688 10 14.3067 10 15.0814V16.9185C10 17.6933 9.99999 18.312 10.0415 18.8114C10.084 19.3237 10.1733 19.764 10.3828 20.1673C10.7054 20.7883 11.2117 21.2946 11.8327 21.6172C12.236 21.8267 12.6763 21.916 13.1886 21.9585C13.688 22 14.3066 22 15.0814 22H16.9185C17.6933 22 18.312 22 18.8114 21.9585C19.3237 21.916 19.764 21.8267 20.1673 21.6172C20.7883 21.2946 21.2946 20.7883 21.6172 20.1673C21.8267 19.764 21.916 19.3237 21.9585 18.8114C22 18.312 22 17.6934 22 16.9186V15.0815C22 14.3067 22 13.688 21.9585 13.1886C21.916 12.6763 21.8267 12.236 21.6172 11.8327C21.2946 11.2117 20.7883 10.7054 20.1673 10.3828C19.764 10.1733 19.3237 10.084 18.8114 10.0415C18.312 9.99999 17.6933 10 16.9185 10ZM17.0558 13.1919C16.687 13.0533 16.2946 12.9886 15.9008 13.0016C15.5071 13.0147 15.1197 13.1051 14.7609 13.2678C14.4021 13.4306 14.0789 13.6623 13.8097 13.95C13.5405 14.2376 13.3306 14.5755 13.1919 14.9442C13.0533 15.313 12.9886 15.7054 13.0016 16.0992C13.0147 16.4929 13.1051 16.8803 13.2678 17.2391C13.4306 17.5979 13.6623 17.9211 13.95 18.1903C14.2376 18.4595 14.5755 18.6694 14.9442 18.8081C15.313 18.9467 15.7054 19.0114 16.0992 18.9984C16.4929 18.9853 16.8803 18.8949 17.2391 18.7322C17.5979 18.5694 17.9211 18.3377 18.1903 18.05C18.4595 17.7624 18.6694 17.4245 18.8081 17.0558C18.9467 16.687 19.0114 16.2946 18.9984 15.9008C18.9853 15.5071 18.8949 15.1197 18.7322 14.7609C18.5694 14.4021 18.3377 14.0789 18.05 13.8097C17.7624 13.5405 17.4245 13.3306 17.0558 13.1919ZM19 12.4C19.3314 12.4 19.6 12.6686 19.6 13C19.6 13.3314 19.3314 13.6 19 13.6H18.992C18.6606 13.6 18.392 13.3314 18.392 13C18.392 12.6686 18.6606 12.4 18.992 12.4H19Z" fill="white"/>
</g>
<defs>
<filter id="filter0_i_1_13" x="0" y="0" width="32" height="36" filterUnits="userSpaceOnUse" color-interpolation-filters="sRGB">
<feFlood flood-opacity="0" result="BackgroundImageFix"/>
<feBlend mode="normal" in="SourceGraphic" in2="BackgroundImageFix" result="shape"/>
<feColorMatrix in="SourceAlpha" type="matrix" values="0 0 0 0 0 0 0 0 0 0 0 0 0 0 0 0 0 0 127 0" result="hardAlpha"/>
<feOffset dy="4"/>
<feGaussianBlur stdDeviation="2"/>
<feComposite in2="hardAlpha" operator="arithmetic" k2="-1" k3="1"/>
<feColorMatrix type="matrix" values="0 0 0 0 0 0 0 0 0 0 0 0 0 0 0 0 0 0 0.25 0"/>
<feBlend mode="normal" in2="shape" result="effect1_innerShadow_1_13"/>
</filter>
</defs>
</svg>
