<svg width="32" height="32" viewBox="0 0 32 32" fill="none" xmlns="http://www.w3.org/2000/svg">
<g filter="url(#filter0_i_1_21)">
<rect x="0.5" y="0.5" width="31" height="31" rx="7.5" stroke="white"/>
<path fill-rule="evenodd" clip-rule="evenodd" d="M10.8518 10C10.3813 10 10 10.3813 10 10.8518V21.1482C10 21.6187 10.3813 22 10.8518 22H21.1482C21.6187 22 22 21.6187 22 21.1482V10.8518C22 10.3813 21.6187 10 21.1482 10H10.8518ZM12.6934 13.7266C13.2684 13.7266 13.7344 13.2605 13.7344 12.6856C13.7344 12.1107 13.2684 11.6446 12.6934 11.6446C12.1185 11.6446 11.6525 12.1107 11.6525 12.6856C11.6525 13.2605 12.1185 13.7266 12.6934 13.7266ZM14.6878 14.4959H16.4131V15.2863C16.4131 15.2863 16.8813 14.3499 18.1551 14.3499C19.2914 14.3499 20.2327 14.9097 20.2327 16.616V20.214H18.4449V17.052C18.4449 16.0454 17.9075 15.9347 17.498 15.9347C16.6482 15.9347 16.5028 16.6677 16.5028 17.1833V20.214H14.6878V14.4959ZM13.6009 14.496H11.786V20.214H13.6009V14.496Z" fill="white"/>
</g>
<defs>
<filter id="filter0_i_1_21" x="0" y="0" width="32" height="36" filterUnits="userSpaceOnUse" color-interpolation-filters="sRGB">
<feFlood flood-opacity="0" result="BackgroundImageFix"/>
<feBlend mode="normal" in="SourceGraphic" in2="BackgroundImageFix" result="shape"/>
<feColorMatrix in="SourceAlpha" type="matrix" values="0 0 0 0 0 0 0 0 0 0 0 0 0 0 0 0 0 0 127 0" result="hardAlpha"/>
<feOffset dy="4"/>
<feGaussianBlur stdDeviation="2"/>
<feComposite in2="hardAlpha" operator="arithmetic" k2="-1" k3="1"/>
<feColorMatrix type="matrix" values="0 0 0 0 0 0 0 0 0 0 0 0 0 0 0 0 0 0 0.25 0"/>
<feBlend mode="normal" in2="shape" result="effect1_innerShadow_1_21"/>
</filter>
</defs>
</svg>
