<svg width="30" height="40" viewBox="0 0 30 40" fill="none" xmlns="http://www.w3.org/2000/svg">
<path fill-rule="evenodd" clip-rule="evenodd" d="M22.2805 34.5965C20.4625 36.5919 18.3453 38.379 15.968 39.8243C15.6753 40.0391 15.2785 40.0652 14.9533 39.8568C11.441 37.6205 8.49126 34.935 6.17246 32.0151C2.97233 27.9982 0.959235 23.5451 0.269776 19.2548C-0.432693 14.9059 0.224245 10.7197 2.38694 7.31804C3.23901 5.97365 4.32848 4.7497 5.65537 3.69176C8.7059 1.26014 12.189 -0.0256536 15.6623 0.000387876C19.0055 0.0264293 22.3065 1.27316 25.1586 3.88056C26.1603 4.79201 27.0026 5.83693 27.6921 6.96973C30.0174 10.8043 30.5182 15.6936 29.497 20.648C28.4888 25.5438 25.9847 30.5177 22.2805 34.5867V34.5965ZM14.9989 7.7347C19.1226 7.7347 22.4626 11.081 22.4626 15.2053C22.4626 19.3329 19.1194 22.676 14.9989 22.676C10.8751 22.676 7.53512 19.3329 7.53512 15.2053C7.53187 11.0778 10.8751 7.7347 14.9989 7.7347Z" fill="#CAA35B"/>
</svg>
