<svg width="20" height="26" viewBox="0 0 20 26" fill="none" xmlns="http://www.w3.org/2000/svg">
<path fill-rule="evenodd" clip-rule="evenodd" d="M14.8536 22.1228C13.6417 23.3699 12.2302 24.4869 10.6453 25.3902C10.4502 25.5244 10.1857 25.5407 9.96888 25.4105C7.62732 24.0128 5.66084 22.3344 4.11497 20.5094C1.98155 17.9989 0.63949 15.2157 0.17985 12.5342C-0.288462 9.81616 0.149497 7.19981 1.59129 5.07377C2.15934 4.23353 2.88565 3.46856 3.77025 2.80735C5.80394 1.28759 8.12598 0.483967 10.4415 0.500242C12.6703 0.516518 14.871 1.29573 16.7724 2.92535C17.4402 3.49501 18.0017 4.14808 18.4614 4.85608C20.0116 7.25271 20.3455 10.3085 19.6647 13.405C18.9926 16.4649 17.3231 19.5736 14.8536 22.1167V22.1228ZM9.99923 5.33419C12.7484 5.33419 14.9751 7.42564 14.9751 10.0033C14.9751 12.5831 12.7462 14.6725 9.99923 14.6725C7.25007 14.6725 5.02341 12.5831 5.02341 10.0033C5.02125 7.42361 7.25007 5.33419 9.99923 5.33419Z" fill="#283543"/>
</svg>
