<svg width="135" height="40" viewBox="0 0 135 40" fill="none" xmlns="http://www.w3.org/2000/svg">
<path d="M129.998 40.001H5C2.20047 40.001 0 37.8005 0 35.001V5.00098C0 2.20145 2.20047 0.000976562 5 0.000976562H129.998C132.798 0.000976562 134.998 2.20145 134.998 5.00098V35.001C134.998 37.8005 132.798 40.001 129.998 40.001Z" fill="#2C5997"/>
<path d="M129.998 0.800842C132.298 0.800842 134.198 2.70094 134.198 5.00098V35.001C134.198 37.301 132.298 39.2011 129.998 39.2011H5C2.69997 39.2011 0.799865 37.301 0.799865 35.001V5.00098C0.799865 2.70094 2.69997 0.800842 5 0.800842H129.998ZM129.998 0.000976562H5C2.20047 0.000976562 0 2.30101 0 5.00098V35.001C0 37.8005 2.20047 40.001 5 40.001H129.998C132.798 40.001 134.998 37.8005 134.998 35.001V5.00098C134.998 2.30101 132.798 0.000976562 129.998 0.000976562Z" fill="white"/>
<path d="M47.3996 10.2001C47.3996 11 47.1988 11.7003 46.6993 12.1998C46.0985 12.8005 45.3999 13.0992 44.4988 13.0992C43.5977 13.0992 42.8991 12.7988 42.2983 12.1998C41.6976 11.599 41.3989 10.9004 41.3989 9.99929C41.3989 9.09818 41.6993 8.39956 42.2983 7.79882C42.8991 7.19807 43.5977 6.89939 44.4988 6.89939C44.8988 6.89939 45.2987 6.99895 45.6986 7.19976C46.0985 7.40057 46.3989 7.59969 46.598 7.90007L46.0985 8.39956C45.6986 7.90007 45.1991 7.69926 44.4988 7.69926C43.8981 7.69926 43.299 7.90007 42.8991 8.39956C42.3996 8.79949 42.1988 9.40024 42.1988 10.0989C42.1988 10.7975 42.3996 11.3982 42.8991 11.7981C43.3986 12.1981 43.8998 12.4984 44.4988 12.4984C45.1991 12.4984 45.6986 12.2976 46.1981 11.7981C46.4985 11.4978 46.6976 11.0978 46.6976 10.5983H44.4988V9.79848H47.3996V10.2001ZM51.9997 7.70094H49.2997V9.60104H51.7989V10.3013H49.2997V12.2015H51.9997V13.0013H48.4998V7.00064H51.9997V7.70094ZM55.2987 13.0013H54.4988V7.70094H52.7995V7.00064H56.9997V7.70094H55.2987V13.0013ZM59.8988 13.0013V7.00064H60.6986V13.0013H59.8988ZM64.0989 13.0013H63.299V7.70094H61.5997V7.00064H65.7003V7.70094H64.001V13.0013H64.0989ZM73.5994 12.2015C72.9986 12.8022 72.3 13.1009 71.3989 13.1009C70.4995 13.1009 69.7992 12.8005 69.1985 12.2015C68.5977 11.6007 68.299 10.9021 68.299 10.001C68.299 9.09986 68.5994 8.40125 69.1985 7.8005C69.7975 7.19976 70.4978 6.90108 71.3989 6.90108C72.2983 6.90108 72.9986 7.20145 73.5994 7.8005C74.2001 8.40125 74.4988 9.09986 74.4988 10.001C74.4988 10.9021 74.1984 11.6007 73.5994 12.2015ZM69.7992 11.7003C70.1991 12.1002 70.7999 12.4006 71.3989 12.4006C71.998 12.4006 72.5987 12.1998 72.9986 11.7003C73.3986 11.3003 73.699 10.6996 73.699 10.001C73.699 9.30236 73.4981 8.70162 72.9986 8.30169C72.5987 7.90175 71.998 7.60138 71.3989 7.60138C70.7999 7.60138 70.1991 7.80219 69.7992 8.30169C69.3993 8.70162 69.0989 9.30236 69.0989 10.001C69.0989 10.6996 69.2997 11.3003 69.7992 11.7003ZM75.5991 13.0013V7.00064H76.4985L79.3993 11.7003V7.00064H80.1991V13.0013H79.3993L76.2994 8.10088V13.0013H75.5991Z" fill="white"/>
<path d="M68.0999 21.8015C65.7003 21.8015 63.8002 23.6021 63.8002 26.1012C63.8002 28.5008 65.7003 30.4009 68.0999 30.4009C70.4995 30.4009 72.3996 28.6004 72.3996 26.1012C72.3996 23.5008 70.4995 21.8015 68.0999 21.8015ZM68.0999 28.6004C66.8005 28.6004 65.7003 27.5001 65.7003 26C65.7003 24.4998 66.8005 23.3996 68.0999 23.3996C69.3993 23.3996 70.4995 24.4002 70.4995 26C70.4995 27.5001 69.3993 28.6004 68.0999 28.6004ZM58.7985 21.8015C56.3989 21.8015 54.4988 23.6021 54.4988 26.1012C54.4988 28.5008 56.3989 30.4009 58.7985 30.4009C61.1981 30.4009 63.0982 28.6004 63.0982 26.1012C63.0999 23.5008 61.1998 21.8015 58.7985 21.8015ZM58.7985 28.6004C57.4992 28.6004 56.3989 27.5001 56.3989 26C56.3989 24.4998 57.4992 23.3996 58.7985 23.3996C60.0979 23.3996 61.1981 24.4002 61.1981 26C61.1998 27.5001 60.0996 28.6004 58.7985 28.6004ZM47.7 23.1009V24.9014H51.9997C51.9001 25.9021 51.5002 26.702 50.999 27.2015C50.3983 27.8022 49.3993 28.5008 47.6983 28.5008C44.9983 28.5008 42.9987 26.4016 42.9987 23.7016C42.9987 21.0017 45.0996 18.9007 47.7 18.9007C49.1006 18.9007 50.1991 19.5015 51.0007 20.2001L52.3 18.9007C51.1998 17.9001 49.8009 17.1002 47.7995 17.1002C44.2001 17.1002 41.1002 20.1005 41.1002 23.6999C41.1002 27.2993 44.2001 30.2997 47.7995 30.2997C49.7992 30.2997 51.1998 29.6989 52.3996 28.3996C53.5994 27.1998 53.9993 25.4988 53.9993 24.1994C53.9993 23.7995 53.9993 23.3996 53.8998 23.0992L47.7 23.1009ZM93.0982 24.5015C92.6983 23.5008 91.6976 21.8015 89.4988 21.8015C87.2984 21.8015 85.4995 23.5008 85.4995 26.1012C85.4995 28.5008 87.3 30.4009 89.6996 30.4009C91.5997 30.4009 92.7995 29.2011 93.1995 28.5008L91.7989 27.5001C91.2994 28.2004 90.6986 28.6999 89.6996 28.6999C88.699 28.6999 88.0999 28.3 87.6004 27.4006L93.3007 25.001L93.0982 24.5015ZM87.2984 25.9004C87.2984 24.3007 88.5977 23.4012 89.4988 23.4012C90.1991 23.4012 90.8994 23.8012 91.0985 24.3007L87.2984 25.9004ZM82.5987 30.001H84.4988V17.5001H82.5987V30.001ZM79.5984 22.7009C79.0989 22.2014 78.299 21.7003 77.2984 21.7003C75.1991 21.7003 73.1978 23.6004 73.1978 26C73.1978 28.3996 75.0979 30.2001 77.2984 30.2001C78.299 30.2001 79.0989 29.7006 79.4988 29.1994H79.5984V29.8002C79.5984 31.3999 78.699 32.2993 77.2984 32.2993C76.1981 32.2993 75.3982 31.4995 75.1991 30.7992L73.5994 31.4995C74.0989 32.5997 75.2987 33.9986 77.3996 33.9986C79.6001 33.9986 81.3989 32.6993 81.3989 29.5994V21.999H79.5984V22.7009ZM77.3996 28.6004C76.1002 28.6004 75 27.5001 75 26C75 24.4998 76.1002 23.3996 77.3996 23.3996C78.699 23.3996 79.6996 24.4998 79.6996 26C79.6996 27.5001 78.699 28.6004 77.3996 28.6004ZM101.799 17.5001H97.2984V29.9993H99.1984V25.2997H101.799C103.898 25.2997 105.899 23.7995 105.899 21.3999C105.899 19.0003 103.898 17.5001 101.799 17.5001ZM101.898 23.5008H99.1984V19.2011H101.898C103.299 19.2011 104.099 20.4009 104.099 21.3003C103.999 22.4006 103.199 23.5008 101.898 23.5008ZM113.399 21.7003C111.998 21.7003 110.599 22.301 110.098 23.6004L111.797 24.3007C112.197 23.6004 112.798 23.4012 113.496 23.4012C114.497 23.4012 115.397 24.002 115.496 25.001V25.1005C115.196 24.8997 114.396 24.601 113.596 24.601C111.795 24.601 109.997 25.6017 109.997 27.4006C109.997 29.0999 111.497 30.2001 113.097 30.2001C114.396 30.2001 114.997 29.5994 115.496 29.0003H115.596V30.001H117.396V25.2018C117.199 23.0013 115.498 21.7003 113.399 21.7003ZM113.198 28.6004C112.597 28.6004 111.698 28.3 111.698 27.5001C111.698 26.4995 112.798 26.2008 113.697 26.2008C114.497 26.2008 114.897 26.4016 115.397 26.6007C115.199 27.8005 114.198 28.6004 113.198 28.6004ZM123.699 22.0006L121.6 27.4006H121.498L119.298 22.0006H117.298L120.599 29.601L118.699 33.8012H120.599L125.699 22.0006H123.699ZM106.898 30.001H108.799V17.5001H106.898V30.001Z" fill="white"/>
<path d="M10.3999 7.50024C10.0996 7.80061 10 8.3001 10 8.90084V31.0001C10 31.6008 10.2008 32.1003 10.4995 32.4007L10.5991 32.5002L22.9987 20.1006V19.8998L10.3999 7.50024Z" fill="url(#paint0_linear_1_71)"/>
<path d="M26.9997 24.3008L22.8991 20.2002V19.8998L26.9997 15.7993L27.0992 15.8988L31.9997 18.6983C33.4003 19.4982 33.4003 20.7976 31.9997 21.5991L26.9997 24.3008Z" fill="url(#paint1_linear_1_71)"/>
<path d="M27.0992 24.2012L22.8991 20.0011L10.3999 32.5002C10.8994 32.9997 11.5997 32.9997 12.4992 32.5998L27.0992 24.2012Z" fill="url(#paint2_linear_1_71)"/>
<path d="M27.0992 15.8009L12.4992 7.50024C11.5997 7.00074 10.8994 7.1003 10.3999 7.5998L22.8991 19.9994L27.0992 15.8009Z" fill="url(#paint3_linear_1_71)"/>
<path d="M26.9997 24.1L12.4992 32.2994C11.6993 32.7989 10.999 32.6994 10.4995 32.2994L10.3999 32.4007L10.4995 32.5002C10.999 32.9002 11.6993 32.9997 12.4992 32.5002L26.9997 24.1Z" fill="#2C5997"/>
<path d="M10.3999 32.3011C10.0996 32.0007 10 31.5012 10 30.9005V31.0001C10 31.6008 10.2008 32.1003 10.4995 32.4007V32.3011H10.3999ZM31.9997 21.3004L26.9997 24.1L27.0992 24.1995L31.9997 21.4C32.7 21.0001 33.0003 20.5006 33.0003 19.9994C33.0003 20.5006 32.6004 20.9005 31.9997 21.3004Z" fill="#2C5997"/>
<path d="M12.4992 7.60148L31.9997 18.7017C32.6004 19.1017 33.0003 19.5016 33.0003 20.0011C33.0003 19.5016 32.7 19.0004 31.9997 18.6005L12.4992 7.50024C11.0985 6.70037 10 7.29943 10 8.90084V9.00041C10 7.50024 11.1002 6.80162 12.4992 7.60148Z" fill="white"/>
<defs>
<linearGradient id="paint0_linear_1_71" x1="122.518" y1="1.92607" x2="114.436" y2="54.3855" gradientUnits="userSpaceOnUse">
<stop stop-color="#00A0FF"/>
<stop offset="0.007" stop-color="#00A1FF"/>
<stop offset="0.26" stop-color="#00BEFF"/>
<stop offset="0.512" stop-color="#00D2FF"/>
<stop offset="0.76" stop-color="#00DFFF"/>
<stop offset="1" stop-color="#00E3FF"/>
</linearGradient>
<linearGradient id="paint1_linear_1_71" x1="145.443" y1="19.9911" x2="-176.347" y2="19.9911" gradientUnits="userSpaceOnUse">
<stop stop-color="#FFE000"/>
<stop offset="0.409" stop-color="#FFBD00"/>
<stop offset="0.775" stop-color="#FFA500"/>
<stop offset="1" stop-color="#FF9C00"/>
</linearGradient>
<linearGradient id="paint2_linear_1_71" x1="116.55" y1="7.08179" x2="69.2777" y2="130.204" gradientUnits="userSpaceOnUse">
<stop stop-color="#FF3A44"/>
<stop offset="1" stop-color="#C31162"/>
</linearGradient>
<linearGradient id="paint3_linear_1_71" x1="-25.3564" y1="-21.7081" x2="-4.07475" y2="33.464" gradientUnits="userSpaceOnUse">
<stop stop-color="#32A071"/>
<stop offset="0.069" stop-color="#2DA771"/>
<stop offset="0.476" stop-color="#15CF74"/>
<stop offset="0.801" stop-color="#06E775"/>
<stop offset="1" stop-color="#00F076"/>
</linearGradient>
</defs>
</svg>
