<svg width="38" height="40" viewBox="0 0 38 40" fill="none" xmlns="http://www.w3.org/2000/svg">
<path fill-rule="evenodd" clip-rule="evenodd" d="M7.83418 14.5022C7.53732 16.2241 9.0119 17.536 9.93795 17.4481C9.9315 17.0314 9.94118 16.618 9.93795 16.2111C8.79894 15.8758 8.64406 13.8414 9.9315 13.3596V13.8837C9.93473 13.7893 9.93473 13.6981 9.93795 13.607V17.4318C9.93795 19.7007 10.7672 21.2371 12.1353 22.8387C10.7866 24.2091 10.0767 24.5249 8.63761 25.1726C6.24989 26.2436 4.53654 27.142 2.91031 29.3588C1.75194 30.9343 0.961411 33.0925 0.5 35.3093C2.18431 37.3666 5.40774 38.6654 9.27326 39.388C9.0119 38.4798 8.86993 37.5228 8.86993 36.53C8.86993 30.8887 13.4034 26.312 18.9984 26.312C24.5902 26.312 29.1268 30.8855 29.1268 36.53C29.1268 37.4382 29.0075 38.3203 28.788 39.1602C33.6829 38.2715 37.2709 36.8425 37.5 35.2832C36.945 32.9102 35.9964 30.739 34.738 29.1602C33.4764 27.5782 31.9082 26.3543 30.1174 25.3907C30.1045 25.3842 30.0948 25.3777 30.0819 25.3745C29.7238 25.2312 29.3301 25.0815 28.9849 24.9513C27.5813 24.4207 27.0715 24.2286 25.7744 22.9428C27.1973 21.3283 28.062 19.7495 28.062 17.4318V13.3075C28.0685 13.4963 28.0717 13.6916 28.075 13.8837V13.3596C29.3624 13.8414 29.2011 15.8758 28.062 16.2111C28.0588 16.6213 28.0653 17.0314 28.062 17.4481C28.9881 17.536 30.4691 16.2241 30.1755 14.5022C35.3317 -5.55953 2.42308 -4.0947 7.83418 14.5022ZM11.4061 39.7168C12.3999 39.8438 13.4195 39.9349 14.4585 40C14.0487 39.5345 13.7067 38.9941 13.4034 38.3919C12.7 37.2494 10.7027 37.8386 11.3383 39.5736C11.3641 39.6191 11.3867 39.668 11.4061 39.7168ZM23.7222 39.8372C24.7515 39.7428 25.7582 39.6257 26.7294 39.4889C27.2747 37.819 25.3291 37.2689 24.6353 38.3919C24.3708 38.9258 24.0739 39.4108 23.7222 39.8372ZM18.9564 36.5528C19.2468 36.5528 19.4792 36.7904 19.4792 37.0801C19.4792 37.3731 19.2436 37.6074 18.9564 37.6074C18.666 37.6074 18.4337 37.3698 18.4337 37.0801C18.4305 36.7904 18.666 36.5528 18.9564 36.5528ZM18.9597 35.1693C20.0051 35.1693 20.8505 36.0222 20.8505 37.0768C20.8505 38.1315 20.0051 38.9844 18.9597 38.9844C17.9142 38.9844 17.0688 38.1315 17.0688 37.0768C17.0688 36.0254 17.9175 35.1693 18.9597 35.1693ZM11.3093 33.724C12.0417 31.6765 13.5389 29.948 15.4136 29.0658C17.9917 27.8549 21.1183 27.7768 23.7674 29.7559C25.3291 30.9213 25.9002 31.8783 26.6778 33.5743C27.2683 35.0782 26.7843 35.5632 24.887 34.7201C20.9666 32.7637 17.0011 32.8516 13 34.7201C11.5222 35.6901 10.6962 34.8796 11.3093 33.724ZM22.0443 9.89607C21.8314 9.89607 21.6571 9.72029 21.6604 9.50545C21.6604 9.29061 21.8346 9.11483 22.0476 9.11808C22.6864 9.12134 23.2737 9.24178 23.7996 9.49243C24.3288 9.74308 24.7935 10.1207 25.1871 10.635C25.3194 10.8043 25.2871 11.0517 25.1161 11.1819C24.9483 11.3121 24.7031 11.2828 24.574 11.1103C24.2578 10.6968 23.8868 10.3941 23.4705 10.1955C23.0511 9.99373 22.5735 9.89607 22.0443 9.89607ZM17.2076 21.7677C17.0463 21.6798 16.985 21.478 17.0688 21.3153C17.156 21.1525 17.356 21.0906 17.5174 21.1753C18.0304 21.4487 18.5337 21.5887 19.0274 21.5919C19.5211 21.5919 20.018 21.4552 20.5149 21.1785C20.6762 21.0906 20.8763 21.1492 20.9666 21.312C21.0538 21.4748 20.9957 21.6766 20.8344 21.7677C20.2406 22.0998 19.6373 22.2625 19.0274 22.2625C18.4208 22.256 17.8142 22.09 17.2076 21.7677ZM22.0734 20.1727C21.741 20.2866 21.399 20.3843 21.0441 20.4591C20.6827 20.5601 20.3471 20.6219 20.0503 20.6284C19.7115 20.6349 19.4211 20.5731 19.1888 20.4168C19.1178 20.368 19.0532 20.3192 18.9984 20.2638C18.9435 20.3192 18.879 20.368 18.808 20.4168C18.5757 20.5731 18.2853 20.6349 17.9465 20.6284C17.6496 20.6219 17.3173 20.5601 16.9527 20.4591C16.601 20.381 16.259 20.2866 15.9234 20.1727C15.591 20.0588 15.2684 19.9285 14.9522 19.7788C14.8005 19.7072 14.7392 19.5347 14.8166 19.3947C14.8618 19.3101 14.9457 19.2547 15.0393 19.2417C15.2071 19.2157 15.3426 19.1961 15.4684 19.1799H15.4781C15.8847 19.1245 16.1977 19.0789 16.5784 18.9259C16.6849 18.8836 16.7914 18.8348 16.8978 18.786C17.5077 18.5028 18.1724 18.1903 18.8371 18.7241C18.8951 18.7697 18.9468 18.8185 18.9952 18.8674C19.0436 18.8185 19.0952 18.7697 19.1533 18.7241C19.818 18.1903 20.4826 18.5028 21.0925 18.786C21.199 18.8348 21.3022 18.8836 21.4087 18.9259C21.7894 19.0789 22.1024 19.1245 22.509 19.1799H22.5187C22.6445 19.1961 22.78 19.2157 22.9478 19.2417C23.0414 19.258 23.1253 19.3101 23.1704 19.3947C23.2479 19.5347 23.1866 19.7072 23.0349 19.7788C22.7284 19.9285 22.4057 20.0588 22.0734 20.1727ZM18.2014 17.3146C18.0691 17.2007 18.0498 17.0021 18.1627 16.8654C18.2756 16.732 18.4757 16.7124 18.608 16.8264C18.7661 16.9598 18.9177 17.0314 19.0629 17.0314C19.2081 17.0347 19.3662 16.9663 19.5372 16.8231C19.6728 16.7124 19.8696 16.732 19.9825 16.8654C20.0922 17.0021 20.0729 17.2007 19.9406 17.3146C19.6502 17.5555 19.3533 17.6694 19.0565 17.6662C18.7532 17.6629 18.4692 17.5425 18.2014 17.3146ZM13.8132 12.2138C13.6873 12.2626 13.5486 12.1877 13.5034 12.0412C13.4582 11.8948 13.526 11.7385 13.6551 11.6864C14.1455 11.4944 14.6392 11.4032 15.1296 11.4065C15.6201 11.4097 16.1105 11.5074 16.5978 11.6832C16.7236 11.7287 16.7946 11.885 16.7559 12.0315C16.7171 12.178 16.5784 12.2593 16.4526 12.2138C16.2912 12.1552 16.1299 12.1063 15.9653 12.0673C15.9815 12.1259 15.9911 12.1877 15.9911 12.2528C15.9911 12.6337 15.6878 12.9397 15.3103 12.9397C14.9328 12.9397 14.6295 12.6304 14.6295 12.2528C14.6295 12.1584 14.6489 12.0705 14.6811 11.9892C14.3907 12.0282 14.1036 12.0998 13.8132 12.2138ZM21.7217 12.0087C21.6926 12.0836 21.6733 12.0217 21.6733 12.2528C21.6733 12.4839 21.9766 12.9397 22.3541 12.9397C22.7316 12.9397 23.0349 12.6304 23.0349 12.2528C23.0349 12.1421 23.0091 12.0412 22.9639 11.9501C23.2608 11.9826 23.5609 12.0477 23.8642 12.1487C23.9932 12.191 24.1288 12.1063 24.1643 11.9566C24.1997 11.8101 24.1255 11.6539 23.9965 11.6116C23.506 11.4488 23.0156 11.3707 22.5251 11.3707C22.0379 11.3707 21.5507 11.4521 21.0699 11.6148C20.9408 11.6571 20.8666 11.8101 20.9053 11.9599C20.9441 12.1063 21.0763 12.191 21.2054 12.1487C21.3732 12.0901 21.5507 12.0445 21.7217 12.0087ZM15.9395 9.19295C16.1525 9.18319 16.3332 9.3492 16.3429 9.5673C16.3525 9.78214 16.188 9.96443 15.9718 9.9742C15.3781 10.0035 14.8715 10.1239 14.4488 10.329C14.0358 10.5308 13.7002 10.8173 13.4324 11.1819C13.3066 11.3544 13.0613 11.3902 12.8903 11.2632C12.7193 11.1363 12.6838 10.8889 12.8097 10.7164C13.1517 10.2509 13.5841 9.88305 14.1132 9.62589C14.6295 9.37199 15.2361 9.2255 15.9395 9.19295ZM18.9984 4.02698C14.6682 4.02698 11.1254 7.60442 11.1254 11.9696V17.4286C11.1254 19.6128 12.0127 21.0516 13.4389 22.4936C14.865 23.9324 16.8333 24.8276 18.9984 24.8276C21.1635 24.8276 23.1317 23.9324 24.5579 22.4936C25.9841 21.0548 26.8714 19.6128 26.8714 17.4286V11.9729C26.8714 7.60442 23.3286 4.02698 18.9984 4.02698Z" fill="#CAA35B"/>
</svg>
