<svg width="32" height="32" viewBox="0 0 32 32" fill="none" xmlns="http://www.w3.org/2000/svg">
<rect width="32" height="32" rx="6" fill="black"/>
<path fill-rule="evenodd" clip-rule="evenodd" d="M19.212 13.9373C20.1934 14.6349 21.3685 15.0077 22.5725 15.0031V12.617C22.3359 12.6176 22.0998 12.5923 21.8686 12.5414V14.4424C20.6619 14.4445 19.485 14.0675 18.5042 13.3646V18.2722C18.5012 19.0775 18.2803 19.8669 17.8651 20.5569C17.4498 21.2468 16.8555 21.8115 16.1453 22.1911C15.4351 22.5706 14.6354 22.7509 13.831 22.7129C13.0266 22.6748 12.2475 22.4197 11.5763 21.9747C12.1972 22.6028 12.9904 23.0326 13.8556 23.2096C14.7209 23.3866 15.6192 23.3029 16.4368 22.969C17.2544 22.6352 17.9546 22.0662 18.4486 21.3342C18.9426 20.6021 19.2083 19.7399 19.212 18.8568V13.9373ZM20.083 11.5034C19.584 10.9625 19.2778 10.2718 19.212 9.53884V9.22864H18.5439C18.6265 9.69457 18.8062 10.1379 19.0714 10.5298C19.3366 10.9217 19.6812 11.2535 20.083 11.5034ZM13.1234 20.0857C12.8918 19.7828 12.7499 19.4211 12.7138 19.0416C12.6777 18.6621 12.7488 18.2801 12.9192 17.939C13.0895 17.598 13.3521 17.3116 13.6772 17.1125C14.0022 16.9133 14.3767 16.8094 14.7579 16.8126C14.9684 16.8126 15.1776 16.8448 15.3783 16.9081V14.4424C15.1437 14.4113 14.907 14.398 14.6704 14.4026V16.3195C14.1817 16.165 13.6527 16.2001 13.1887 16.4179C12.7247 16.6357 12.3597 17.0201 12.1662 17.4947C11.9728 17.9694 11.965 18.4994 12.1446 18.9795C12.3242 19.4596 12.6778 19.8545 13.1353 20.0857H13.1234Z" fill="#EE1D52"/>
<path fill-rule="evenodd" clip-rule="evenodd" d="M18.5038 13.3487C19.4847 14.0516 20.6616 14.4286 21.8683 14.4265V12.5255C21.1808 12.3801 20.5562 12.0227 20.0827 11.5034C19.6809 11.2535 19.3362 10.9217 19.071 10.5298C18.8059 10.1379 18.6262 9.69457 18.5436 9.22864H16.7858V18.8568C16.7841 19.283 16.6491 19.6979 16.3996 20.0434C16.1501 20.3889 15.7986 20.6476 15.3946 20.7832C14.9905 20.9187 14.5542 20.9243 14.1468 20.7992C13.7394 20.6741 13.3814 20.4246 13.123 20.0857C12.7136 19.8791 12.3857 19.5406 12.1923 19.1248C11.9989 18.709 11.9511 18.2402 12.0568 17.794C12.1625 17.3477 12.4155 16.9501 12.7749 16.6653C13.1343 16.3805 13.5791 16.225 14.0377 16.2241C14.2481 16.2247 14.4572 16.2569 14.6581 16.3195V14.4026C13.7902 14.4235 12.9472 14.6973 12.2327 15.1904C11.5182 15.6836 10.9632 16.3746 10.6359 17.1787C10.3086 17.9829 10.2232 18.865 10.3902 19.717C10.5572 20.569 10.9693 21.3536 11.576 21.9747C12.2473 22.4229 13.0276 22.6806 13.8338 22.7204C14.64 22.7601 15.4419 22.5805 16.154 22.2005C16.8662 21.8206 17.462 21.2545 17.8778 20.5628C18.2937 19.871 18.5142 19.0793 18.5157 18.2722L18.5038 13.3487Z" fill="#E3E3E3"/>
<path fill-rule="evenodd" clip-rule="evenodd" d="M21.8683 12.5255L21.8685 12.0123C21.2371 12.015 20.6181 11.8387 20.083 11.5034C20.5553 12.0242 21.1801 12.3819 21.8683 12.5255ZM18.5439 9.22864C18.5439 9.13717 18.516 9.04156 18.504 8.95009V8.63989H16.0781V18.272C16.076 18.8113 15.86 19.3278 15.4775 19.7081C15.095 20.0883 14.5773 20.3013 14.0379 20.3002C13.7204 20.3018 13.4071 20.2284 13.1234 20.0857C13.3817 20.4246 13.7394 20.6741 14.1468 20.7992C14.5542 20.9243 14.9905 20.9187 15.3946 20.7832C15.7986 20.6476 16.1501 20.3889 16.3996 20.0434C16.6491 19.6979 16.7841 19.283 16.7858 18.8568V9.22864H18.5439ZM14.6583 14.3985V13.8536C13.6601 13.718 12.6453 13.9245 11.7795 14.4395C10.9136 14.9544 10.2477 15.7474 9.89019 16.6893C9.53272 17.6312 9.5048 18.6663 9.81098 19.6261C10.1172 20.5859 10.7395 21.4138 11.5763 21.9747C10.9743 21.3522 10.5664 20.5677 10.4028 19.7173C10.2393 18.8669 10.3269 17.9872 10.6551 17.1858C10.9832 16.3844 11.5377 15.6959 12.2507 15.2044C12.9638 14.713 13.8045 14.4398 14.6703 14.4184L14.6583 14.3985Z" fill="#69C9D0"/>
</svg>
