<svg width="32" height="32" viewBox="0 0 32 32" fill="none" xmlns="http://www.w3.org/2000/svg">
<g filter="url(#filter0_i_1_17)">
<rect x="0.5" y="0.5" width="31" height="31" rx="7.5" stroke="white"/>
<mask id="path-3-inside-1_1_17" fill="white">
<path d="M21.9098 12.0612C21.8155 11.9633 21.6694 11.9354 21.5452 11.9925L21.4925 12.0166C21.4479 12.0372 21.4033 12.0577 21.3584 12.0779C21.489 11.8696 21.5927 11.6468 21.6643 11.4164C21.7041 11.2892 21.6607 11.1503 21.5555 11.0681C21.4502 10.9859 21.3051 10.9772 21.1911 11.0469C20.6862 11.3538 20.2092 11.5451 19.6902 11.6484L19.4385 11.6911C20.1145 12.1877 20.5556 12.986 20.5556 13.8893C20.5556 13.9301 20.5536 13.9727 20.5527 14.0142L20.6005 13.9756C21.6036 13.1398 21.9516 12.4567 21.966 12.4281C22.027 12.3058 22.0045 12.1588 21.9098 12.0612Z"/>
</mask>
<path d="M21.9098 12.0612C21.8155 11.9633 21.6694 11.9354 21.5452 11.9925L21.4925 12.0166C21.4479 12.0372 21.4033 12.0577 21.3584 12.0779C21.489 11.8696 21.5927 11.6468 21.6643 11.4164C21.7041 11.2892 21.6607 11.1503 21.5555 11.0681C21.4502 10.9859 21.3051 10.9772 21.1911 11.0469C20.6862 11.3538 20.2092 11.5451 19.6902 11.6484L19.4385 11.6911C20.1145 12.1877 20.5556 12.986 20.5556 13.8893C20.5556 13.9301 20.5536 13.9727 20.5527 14.0142L20.6005 13.9756C21.6036 13.1398 21.9516 12.4567 21.966 12.4281C22.027 12.3058 22.0045 12.1588 21.9098 12.0612Z" fill="white"/>
<path d="M21.9098 12.0612L20.8299 13.1022L20.8334 13.1058L21.9098 12.0612ZM21.5452 11.9925L22.169 13.3567L22.172 13.3553L21.5452 11.9925ZM21.4925 12.0166L20.8687 10.6525L20.8652 10.6541L21.4925 12.0166ZM21.3584 12.0779L20.0876 11.281L17.4546 15.4795L21.9739 13.4458L21.3584 12.0779ZM21.6643 11.4164L20.2328 10.9681L20.2318 10.9714L21.6643 11.4164ZM21.1911 11.0469L21.9702 12.3287L21.9735 12.3267L21.1911 11.0469ZM19.6902 11.6484L19.941 13.1273L19.9621 13.1237L19.9831 13.1195L19.6902 11.6484ZM19.4385 11.6911L19.1876 10.2123L15.6975 10.8043L18.5505 12.9L19.4385 11.6911ZM20.5527 14.0142L19.0531 13.9793L18.978 17.2084L21.4935 15.1824L20.5527 14.0142ZM20.6005 13.9756L21.5414 15.1439L21.5511 15.136L21.5607 15.128L20.6005 13.9756ZM21.966 12.4281L23.3046 13.105L23.3084 13.0975L21.966 12.4281ZM21.9098 12.0612L22.9898 11.0202C22.4539 10.4643 21.6235 10.3055 20.9184 10.6298L21.5452 11.9925L22.172 13.3553C21.7153 13.5654 21.1771 13.4624 20.8299 13.1022L21.9098 12.0612ZM21.5452 11.9925L20.9213 10.6284L20.8687 10.6525L21.4925 12.0166L22.1164 13.3807L22.169 13.3567L21.5452 11.9925ZM21.4925 12.0166L20.8652 10.6541C20.8196 10.6751 20.7809 10.6929 20.7428 10.71L21.3584 12.0779L21.9739 13.4458C22.0257 13.4225 22.0762 13.3992 22.1199 13.3791L21.4925 12.0166ZM21.3584 12.0779L22.6292 12.8749C22.8253 12.5621 22.9849 12.2215 23.0968 11.8613L21.6643 11.4164L20.2318 10.9714C20.2005 11.0722 20.1527 11.1771 20.0876 11.281L21.3584 12.0779ZM21.6643 11.4164L23.0957 11.8646C23.3226 11.1402 23.0757 10.3518 22.4784 9.8856L21.5555 11.0681L20.6326 12.2506C20.2458 11.9487 20.0856 11.4383 20.2328 10.9681L21.6643 11.4164ZM21.5555 11.0681L22.4784 9.8856C21.8833 9.42118 21.0591 9.36958 20.4088 9.76706L21.1911 11.0469L21.9735 12.3267C21.5511 12.5849 21.017 12.5506 20.6326 12.2506L21.5555 11.0681ZM21.1911 11.0469L20.4121 9.76506C20.0392 9.99167 19.7253 10.112 19.3972 10.1773L19.6902 11.6484L19.9831 13.1195C20.6932 12.9782 21.3332 12.7159 21.9702 12.3287L21.1911 11.0469ZM19.6902 11.6484L19.4393 10.1696L19.1876 10.2123L19.4385 11.6911L19.6894 13.17L19.941 13.1273L19.6902 11.6484ZM19.4385 11.6911L18.5505 12.9C18.8616 13.1286 19.0556 13.4875 19.0556 13.8893H20.5556H22.0556C22.0556 12.4845 21.3674 11.2468 20.3265 10.4822L19.4385 11.6911ZM20.5556 13.8893H19.0556C19.0556 13.8878 19.0556 13.8915 19.0551 13.9084C19.0548 13.9175 19.0546 13.9243 19.0542 13.9376C19.0539 13.9491 19.0534 13.9637 19.0531 13.9793L20.5527 14.0142L22.0523 14.049C22.0526 14.033 22.0529 14.0276 22.0539 13.9946C22.0546 13.9696 22.0556 13.9316 22.0556 13.8893H20.5556ZM20.5527 14.0142L21.4935 15.1824L21.5414 15.1439L20.6005 13.9756L19.6596 12.8074L19.6118 12.8459L20.5527 14.0142ZM20.6005 13.9756L21.5607 15.128C22.7468 14.1397 23.2142 13.2838 23.3046 13.105L21.966 12.4281L20.6274 11.7513C20.6889 11.6296 20.4604 12.1399 19.6403 12.8233L20.6005 13.9756ZM21.966 12.4281L23.3084 13.0975C23.6513 12.4099 23.5279 11.5748 22.9863 11.0166L21.9098 12.0612L20.8334 13.1058C20.4811 12.7429 20.4027 12.2018 20.6237 11.7587L21.966 12.4281Z" fill="white" mask="url(#path-3-inside-1_1_17)"/>
<path d="M17.8273 11.1616C16.3206 11.1616 15.0989 12.3833 15.0989 13.8901V14.3716C12.1259 14.2121 10.7986 12.6277 10.3323 11.8754C10.2294 11.7093 9.98622 11.6936 9.90577 11.8716C9.77823 12.1539 9.64199 12.5753 9.64199 13.0876C9.64199 14.6925 10.926 15.3345 10.926 15.3345C10.4324 15.3345 10.0232 15.2502 9.74153 15.168C9.5535 15.1132 9.36182 15.2637 9.42266 15.4499C9.61082 16.0257 10.1355 17.0305 11.5679 17.5815L10.6041 17.8224C10.4434 17.8626 10.3728 18.0406 10.4813 18.1659C10.795 18.528 11.5133 19.1728 12.8519 19.5074C12.8519 19.5074 11.8808 20.3398 9.55156 20.4568C9.33704 20.4676 9.24741 20.6983 9.42582 20.8179C9.99304 21.1982 11.1658 21.7544 13.1729 21.7544C18.4693 21.7544 20.5558 16.779 20.5558 13.8901C20.5558 12.3833 19.3341 11.1616 17.8273 11.1616Z" fill="white" stroke="white" stroke-width="0.5" stroke-miterlimit="10" stroke-linejoin="round"/>
</g>
<defs>
<filter id="filter0_i_1_17" x="0" y="0" width="32" height="36" filterUnits="userSpaceOnUse" color-interpolation-filters="sRGB">
<feFlood flood-opacity="0" result="BackgroundImageFix"/>
<feBlend mode="normal" in="SourceGraphic" in2="BackgroundImageFix" result="shape"/>
<feColorMatrix in="SourceAlpha" type="matrix" values="0 0 0 0 0 0 0 0 0 0 0 0 0 0 0 0 0 0 127 0" result="hardAlpha"/>
<feOffset dy="4"/>
<feGaussianBlur stdDeviation="2"/>
<feComposite in2="hardAlpha" operator="arithmetic" k2="-1" k3="1"/>
<feColorMatrix type="matrix" values="0 0 0 0 0 0 0 0 0 0 0 0 0 0 0 0 0 0 0.25 0"/>
<feBlend mode="normal" in2="shape" result="effect1_innerShadow_1_17"/>
</filter>
</defs>
</svg>
