<svg width="32" height="32" viewBox="0 0 32 32" fill="none" xmlns="http://www.w3.org/2000/svg">
<rect width="32" height="32" rx="6" fill="#33CCFF"/>
<path d="M23.9416 10.8975C23.4132 11.1249 22.8578 11.2832 22.2889 11.3686C22.5549 11.323 22.9462 10.8443 23.102 10.6505C23.3386 10.3583 23.519 10.0246 23.6339 9.66653C23.6339 9.63994 23.6605 9.60194 23.6339 9.58295C23.6205 9.57563 23.6054 9.5718 23.5902 9.5718C23.5749 9.5718 23.5599 9.57563 23.5465 9.58295C22.9288 9.91745 22.2714 10.1727 21.5898 10.3428C21.5661 10.3501 21.5408 10.3507 21.5167 10.3447C21.4926 10.3387 21.4706 10.3262 21.4531 10.3086C21.4 10.2454 21.3429 10.1858 21.2821 10.13C21.0041 9.88098 20.6887 9.67714 20.3475 9.52596C19.8868 9.33697 19.3893 9.25513 18.8923 9.2866C18.4102 9.31705 17.9394 9.44638 17.5094 9.66653C17.0859 9.89864 16.7137 10.214 16.4152 10.5936C16.1012 10.9843 15.8745 11.4377 15.7503 11.9233C15.6479 12.3853 15.6363 12.8627 15.7161 13.3291C15.7161 13.4088 15.7161 13.4202 15.6477 13.4088C12.9388 13.0099 10.7163 12.0487 8.9002 9.98567C8.82041 9.89449 8.77862 9.89449 8.71403 9.98567C7.92378 11.1863 8.30751 13.0859 9.29532 14.0243C9.4283 14.1497 9.56507 14.2713 9.70944 14.3853C9.25654 14.3531 8.81469 14.2304 8.41009 14.0243C8.3341 13.9749 8.29231 14.0015 8.28851 14.0927C8.27774 14.2191 8.27774 14.3462 8.28851 14.4726C8.36778 15.0785 8.60654 15.6524 8.98036 16.1357C9.35418 16.619 9.84966 16.9943 10.4161 17.2233C10.5542 17.2825 10.6981 17.327 10.8454 17.3563C10.4262 17.4389 9.99613 17.4517 9.57267 17.3943C9.48149 17.3753 9.44729 17.4247 9.48149 17.5121C10.04 19.0318 11.252 19.4953 12.141 19.7537C12.2626 19.7727 12.3841 19.7727 12.5209 19.8031C12.5209 19.8031 12.5209 19.8031 12.4981 19.8258C12.236 20.3046 11.176 20.6275 10.6897 20.7947C9.80202 21.1135 8.85563 21.2354 7.91618 21.1518C7.76801 21.129 7.73381 21.1328 7.69582 21.1518C7.65783 21.1708 7.69582 21.2126 7.73761 21.2506C7.92758 21.376 8.11754 21.4861 8.3151 21.5925C8.90325 21.9133 9.52504 22.1681 10.1692 22.3524C13.5049 23.2718 17.2586 22.5955 19.7624 20.107C21.7304 18.1542 22.4219 15.4605 22.4219 12.763C22.4219 12.6604 22.5473 12.5996 22.6194 12.5464C23.1173 12.1584 23.5563 11.7003 23.9226 11.1863C23.986 11.1096 24.0186 11.0121 24.0138 10.9127C24.0138 10.8557 24.0138 10.8671 23.9416 10.8975Z" fill="white"/>
</svg>
